<?xml version="1.0" standalone="no"?>
<!DOCTYPE svg PUBLIC "-//W3C//DTD SVG 20010904//EN"
 "http://www.w3.org/TR/2001/REC-SVG-20010904/DTD/svg10.dtd">
<svg version="1.0" xmlns="http://www.w3.org/2000/svg"
 width="500.000000pt" height="500.000000pt" viewBox="0 0 500.000000 500.000000"
 preserveAspectRatio="xMidYMid meet">

<g transform="translate(0.000000,500.000000) scale(0.100000,-0.100000)"
fill="#ffffff" stroke="none">
<path d="M2625 4513 c-51 -7 -137 -34 -185 -58 -77 -39 -127 -90 -166 -170
-32 -65 -37 -84 -43 -179 -3 -59 -3 -114 2 -121 11 -20 54 -19 72 3 77 90 80
92 145 108 69 18 167 15 268 -6 42 -10 55 -17 63 -37 11 -29 37 -212 41 -293
l3 -55 -77 -1 c-109 -2 -151 -25 -272 -148 -54 -56 -117 -124 -140 -152 -23
-28 -77 -95 -122 -150 -136 -167 -399 -522 -545 -733 -25 -36 -92 -133 -149
-216 -126 -182 -255 -372 -410 -605 -112 -168 -145 -218 -364 -554 -53 -81
-95 -151 -92 -153 3 -3 58 18 123 46 65 28 121 51 125 51 4 0 40 15 80 34 40
19 114 50 163 71 50 20 111 47 136 61 83 43 91 28 24 -49 -116 -135 -387 -459
-447 -534 -37 -47 -88 -107 -113 -134 -25 -27 -44 -53 -41 -57 3 -5 188 -9
413 -10 346 -2 417 0 468 13 69 18 153 77 190 134 23 34 149 393 210 595 13
43 29 84 37 91 7 7 63 18 123 25 61 6 166 20 234 31 76 13 127 17 133 11 5 -5
-5 -58 -28 -136 -20 -69 -35 -128 -33 -129 2 -2 78 -25 169 -52 175 -51 233
-74 233 -90 0 -5 -14 -19 -32 -30 -18 -11 -50 -34 -70 -52 -36 -31 -36 -32
-39 -122 -4 -98 4 -114 47 -91 18 9 21 20 21 71 0 33 4 68 9 78 11 20 156 107
195 117 26 6 151 -30 162 -47 3 -6 9 -31 13 -57 6 -44 8 -47 36 -47 28 0 30 3
33 44 5 73 -29 128 -93 148 -44 14 -37 31 25 64 101 53 191 27 205 -59 10 -62
22 -82 50 -82 32 0 41 32 25 91 -17 65 -44 102 -91 129 -84 47 -179 27 -315
-65 -20 -14 -45 -25 -56 -25 -11 0 -93 22 -183 49 -90 28 -180 53 -199 57 -59
11 -61 20 -25 141 17 59 39 115 48 125 9 9 63 31 121 49 259 79 469 183 641
314 32 26 64 43 69 40 6 -3 10 -50 10 -105 0 -85 2 -99 18 -104 9 -3 70 -15
135 -27 126 -24 142 -36 83 -64 -18 -9 -41 -30 -49 -48 -17 -34 -29 -167 -17
-187 4 -6 20 -10 36 -8 29 3 29 4 34 78 3 41 8 80 13 87 4 6 42 31 84 54 82
46 128 52 212 29 50 -13 71 -42 71 -97 0 -36 3 -43 19 -43 42 0 51 10 51 62 0
78 -31 125 -92 137 -17 4 -33 12 -35 18 -6 18 110 83 149 83 61 0 107 -49 117
-125 5 -34 10 -40 33 -43 42 -5 53 26 33 96 -31 105 -126 165 -227 143 -27 -6
-79 -31 -116 -55 -116 -74 -129 -79 -191 -72 -31 3 -107 16 -169 28 -132 26
-126 18 -120 162 3 105 -9 79 129 260 61 81 140 210 182 301 83 177 171 444
205 625 24 127 36 160 58 160 20 0 17 14 -26 130 -17 47 -115 335 -217 640
-102 305 -191 565 -199 578 l-14 22 -498 -1 c-273 -1 -510 -4 -527 -6z m982
-76 c11 -12 340 -978 350 -1029 3 -16 2 -28 -1 -28 -7 0 -266 209 -313 253
-18 17 -35 28 -39 25 -3 -3 -5 -75 -5 -159 0 -93 -4 -158 -11 -166 -12 -14
-19 -11 -426 215 -159 88 -247 142 -252 156 -5 11 -14 64 -20 116 -6 52 -26
212 -44 355 -18 143 -30 265 -26 270 12 15 772 8 787 -8z m-873 5 c12 -19 37
-265 29 -273 -6 -6 -38 -5 -84 2 -110 17 -255 8 -313 -21 -61 -29 -71 -19 -48
45 52 141 153 222 302 243 88 13 108 13 114 4z m164 -854 c236 -91 367 -178
442 -294 93 -143 128 -283 110 -442 -22 -192 -108 -345 -274 -485 -307 -260
-1238 -754 -2134 -1133 -56 -24 -118 -51 -137 -59 -46 -23 -59 -12 -35 28 26
43 356 542 517 782 180 266 444 644 593 849 265 362 551 695 664 770 59 40
122 36 254 -16z m856 -143 c28 -25 89 -76 135 -113 123 -98 123 -98 111 -207
-29 -247 -136 -581 -257 -805 -108 -199 -268 -390 -434 -517 -233 -178 -672
-340 -1049 -388 -240 -30 -595 -29 -595 2 0 6 162 93 360 192 357 178 690 355
815 434 349 218 476 325 575 483 134 213 150 457 46 704 -16 38 -25 72 -20 75
4 3 25 -5 46 -18 74 -46 162 -89 174 -85 9 3 12 39 10 136 -1 72 0 136 4 142
11 18 26 11 79 -35z m-2039 -2116 c50 -4 115 -9 146 -9 33 0 61 -5 67 -12 7
-9 -19 -101 -92 -322 -152 -461 -117 -436 -611 -436 -218 0 -346 4 -350 10 -7
11 82 128 207 271 45 52 92 106 103 120 11 13 54 64 95 112 41 48 84 101 96
116 11 16 49 61 85 101 l64 72 50 -7 c27 -4 91 -11 140 -16z"/>
<path d="M3013 4313 c-20 -7 -15 -52 8 -84 68 -96 231 -79 276 29 24 57 11 63
-141 61 -72 -1 -137 -4 -143 -6z"/>
</g>
</svg>
