<?xml version="1.0" standalone="no"?>
<!DOCTYPE svg PUBLIC "-//W3C//DTD SVG 20010904//EN"
 "http://www.w3.org/TR/2001/REC-SVG-20010904/DTD/svg10.dtd">
<svg version="1.0" xmlns="http://www.w3.org/2000/svg"
 width="500.000000pt" height="500.000000pt" viewBox="0 0 500.000000 500.000000"
 preserveAspectRatio="xMidYMid meet">

<g transform="translate(0.000000,500.000000) scale(0.100000,-0.100000)"
fill="#ffffff" stroke="none">
<path d="M1108 4523 c-21 -2 -38 -6 -38 -8 0 -1 -7 -36 -15 -76 -8 -41 -35
-182 -60 -314 -63 -328 -110 -568 -150 -772 -56 -281 -60 -324 -41 -422 8 -47
31 -118 51 -159 36 -76 123 -195 155 -212 34 -18 147 -259 212 -450 66 -196
91 -339 92 -530 1 -177 -11 -256 -60 -407 -47 -145 -155 -351 -250 -475 l-36
-48 51 -49 c28 -27 81 -65 118 -83 64 -31 74 -33 173 -33 97 0 110 2 172 32
105 50 140 78 338 274 274 272 478 429 719 551 254 128 480 169 613 110 62
-27 144 -104 174 -163 47 -94 48 -223 1 -319 -26 -53 -100 -131 -148 -156 -76
-39 -124 -44 -436 -44 -236 0 -303 3 -303 13 0 25 133 167 200 213 39 26 70
53 70 60 0 25 -13 44 -30 44 -27 0 -127 -78 -205 -161 -61 -65 -175 -217 -175
-233 0 -3 168 -6 373 -6 298 0 384 3 430 15 134 35 229 111 288 230 33 67 34
74 34 185 0 106 -2 120 -28 172 -44 89 -116 161 -204 205 -71 35 -83 38 -177
40 -55 1 -102 7 -104 12 -3 10 274 570 291 588 7 7 52 13 112 15 l101 3 74
-48 74 -47 313 0 c275 0 314 2 320 16 9 24 -24 141 -62 223 -60 126 -174 219
-316 256 -31 9 -100 15 -161 15 -64 0 -108 4 -108 10 0 10 85 113 348 423
l142 169 -2 421 -3 422 -50 -1 c-123 -4 -239 -84 -300 -207 -37 -74 -65 -204
-65 -298 l0 -46 -317 -209 c-174 -115 -324 -210 -332 -212 -9 -1 -38 16 -66
39 -27 23 -92 69 -142 102 -51 33 -93 64 -93 69 0 4 58 8 130 8 l130 0 40 36
c22 20 54 66 72 102 28 56 33 80 36 147 1 44 -3 104 -10 134 l-13 55 -63 -57
c-73 -65 -114 -81 -188 -75 -203 17 -255 295 -72 389 73 37 182 15 264 -54 18
-15 34 -27 37 -27 3 0 39 45 81 99 l76 99 5 191 c2 105 2 198 -1 206 -5 13
-126 15 -1028 13 -561 -1 -1038 -3 -1058 -5z m488 -77 c3 -8 -2 -29 -11 -48
-53 -103 -113 -142 -211 -136 -78 5 -133 39 -181 113 -58 88 -64 85 182 85
176 0 217 -3 221 -14z m1205 -6 c4 -8 15 -37 24 -65 12 -33 35 -67 69 -100 56
-55 104 -75 180 -75 44 0 46 -1 46 -29 0 -19 -16 -50 -46 -90 -25 -34 -47 -61
-50 -61 -2 0 -32 14 -66 32 -145 74 -297 33 -375 -99 -21 -36 -27 -63 -31
-124 -4 -70 -2 -84 22 -134 68 -138 235 -195 372 -125 32 16 60 30 62 30 1 0
2 -20 2 -44 0 -59 -23 -121 -66 -173 l-35 -43 -201 0 -200 0 -162 78 c-506
245 -880 508 -1060 745 -33 44 -30 54 15 38 18 -6 60 -11 94 -11 114 0 217 77
261 197 9 26 22 54 27 61 8 9 127 12 560 10 477 -3 551 -5 558 -18z m317 -77
l3 -93 -46 0 c-60 0 -103 19 -142 63 -33 38 -59 100 -48 117 4 7 48 10 118 8
l112 -3 3 -92z m-1975 -166 c44 -142 133 -361 194 -477 103 -197 194 -320 378
-510 94 -96 191 -203 218 -237 94 -123 224 -353 211 -374 -4 -8 -169 -9 -543
-4 l-536 6 -53 57 c-60 66 -114 163 -133 242 -20 82 -15 190 15 340 15 74 42
216 61 315 84 441 136 711 140 723 10 27 21 8 48 -81z m236 -240 c104 -100
193 -169 353 -276 177 -118 322 -196 748 -405 389 -190 625 -425 638 -635 l5
-64 -303 6 c-167 4 -367 7 -444 7 l-141 0 -51 108 c-94 194 -248 402 -401 540
-186 167 -335 388 -468 691 -45 104 -51 121 -38 121 3 0 49 -42 102 -93z
m2591 -379 l-1 -373 -135 -160 c-74 -88 -192 -229 -262 -312 l-127 -153 -125
3 -125 2 -6 72 c-8 88 -44 170 -118 267 -45 60 -51 71 -38 80 9 6 163 107 342
225 l327 215 -6 38 c-9 55 11 209 35 272 35 95 145 194 217 196 l22 0 0 -372z
m-2363 -1072 c256 -120 426 -384 410 -638 -4 -55 -2 -78 6 -78 7 0 79 22 162
49 82 27 260 84 395 126 135 42 299 94 365 116 116 37 155 46 155 33 0 -3 -65
-137 -144 -297 l-143 -292 -99 -33 c-296 -100 -599 -308 -920 -633 -244 -246
-340 -310 -472 -312 -37 0 -86 5 -109 11 -49 14 -137 73 -141 93 -1 8 23 53
54 99 108 160 193 361 236 558 31 140 31 381 0 544 -29 153 -109 392 -181 544
-33 68 -56 125 -53 128 3 3 100 6 216 6 202 0 213 -1 263 -24z m1548 5 c649
-7 650 -7 709 -30 108 -43 237 -202 248 -307 l3 -29 -266 -3 -266 -2 -77 50
-76 50 -123 -7 c-137 -7 -85 7 -792 -218 -220 -70 -404 -128 -410 -129 -5 0
-13 24 -18 54 -13 90 -47 211 -74 265 -40 79 -125 185 -202 249 -39 32 -71 60
-71 62 0 5 634 3 1415 -5z"/>
<path d="M2050 4323 c0 -50 27 -100 73 -137 34 -27 47 -31 101 -31 103 0 165
55 182 163 l7 42 -182 0 -181 0 0 -37z"/>
</g>
</svg>
