<?xml version="1.0" standalone="no"?>
<!DOCTYPE svg PUBLIC "-//W3C//DTD SVG 20010904//EN"
 "http://www.w3.org/TR/2001/REC-SVG-20010904/DTD/svg10.dtd">
<svg version="1.0" xmlns="http://www.w3.org/2000/svg"
 width="500.000000pt" height="500.000000pt" viewBox="0 0 500.000000 500.000000"
 preserveAspectRatio="xMidYMid meet">

<g transform="translate(0.000000,500.000000) scale(0.100000,-0.100000)"
fill="#ffffff" stroke="none">
<path d="M3040 4506 c-172 -36 -266 -95 -495 -307 -327 -302 -291 -279 -424
-279 -158 0 -171 -4 -248 -72 -170 -150 -472 -378 -502 -378 -5 0 -21 -14 -34
-30 -21 -24 -25 -37 -20 -64 9 -56 -3 -79 -54 -111 -67 -42 -163 -141 -200
-205 -71 -124 -88 -210 -43 -210 13 0 22 9 26 28 11 52 20 76 30 79 5 2 26
-33 46 -78 29 -63 41 -80 55 -77 25 5 21 42 -13 114 -15 33 -29 80 -32 106 -4
39 0 52 24 83 30 39 125 117 168 136 21 10 29 9 43 -3 28 -25 92 -48 133 -48
32 0 345 49 510 79 30 6 102 17 158 26 57 8 112 20 122 25 10 5 21 26 25 47 4
21 20 72 36 113 l29 75 130 95 c163 119 242 179 400 300 69 53 145 105 170
115 130 51 300 -19 361 -150 23 -50 25 -145 3 -208 -8 -25 -34 -67 -57 -93
-36 -41 -76 -64 -354 -200 -173 -85 -315 -154 -317 -154 -2 0 -183 -88 -402
-196 -859 -421 -839 -410 -927 -519 -55 -67 -111 -177 -132 -260 -19 -76 -19
-213 0 -305 44 -211 221 -406 429 -475 153 -51 347 -41 474 23 31 16 147 82
257 147 110 64 218 128 240 140 22 13 66 38 97 57 89 52 341 199 468 271 135
78 188 93 252 72 90 -31 132 -95 126 -191 -6 -95 -36 -127 -169 -181 -366
-150 -632 -331 -750 -511 -44 -67 -80 -159 -94 -242 -11 -65 26 -235 71 -321
53 -104 227 -279 277 -279 12 0 12 10 -1 67 -10 46 -16 123 -16 233 l-1 166
38 76 c41 85 94 138 212 218 96 64 279 159 405 211 126 51 196 94 260 158 190
190 229 461 102 706 -122 234 -425 361 -678 284 -38 -11 -148 -62 -244 -112
-366 -190 -968 -490 -1028 -513 -34 -13 -78 -24 -98 -24 -50 0 -109 34 -144
82 -24 33 -30 51 -30 94 0 113 30 145 228 240 85 41 155 74 156 74 2 0 81 38
177 84 96 46 217 104 269 128 52 25 238 114 413 197 176 83 321 151 324 151
15 0 296 148 335 177 140 102 267 300 299 465 14 72 6 236 -16 323 -8 33 -34
98 -58 145 -33 68 -60 103 -132 175 -151 151 -289 213 -490 221 -70 2 -134 -2
-175 -10z m355 -70 c234 -80 405 -266 461 -501 26 -114 6 -355 -30 -355 -8 0
-16 17 -20 43 -21 128 -130 269 -290 372 -192 124 -277 153 -389 135 -90 -14
-105 -23 -356 -218 -125 -97 -209 -160 -290 -220 -47 -35 -99 -75 -114 -90
-36 -34 -70 -100 -88 -170 -8 -32 -21 -58 -32 -63 -23 -13 -171 -42 -402 -79
-326 -52 -359 -55 -395 -40 -43 18 -82 78 -78 121 3 28 13 40 78 85 162 112
329 242 415 323 101 95 91 91 244 91 163 0 133 -16 352 185 310 285 334 305
441 355 106 49 163 60 303 56 87 -3 127 -9 190 -30z m156 -524 c38 -26 133
-133 162 -183 83 -145 46 -322 -98 -465 -59 -60 -82 -74 -300 -179 -129 -63
-237 -115 -240 -115 -5 0 -151 -69 -360 -170 -152 -73 -197 -95 -500 -238
-496 -234 -484 -226 -539 -325 -99 -177 -106 -407 -20 -614 20 -47 7 -60 -37
-37 -161 82 -276 227 -320 404 -7 30 -13 98 -12 150 1 167 68 317 194 434 50
46 97 75 258 153 338 165 647 316 906 443 138 68 304 148 370 180 356 168 419
210 465 307 24 51 41 171 30 218 -7 31 -3 55 8 55 4 0 19 -8 33 -18z m31
-1356 c97 -34 154 -71 225 -142 64 -65 114 -155 139 -248 31 -114 4 -289 -59
-395 -61 -102 -131 -168 -234 -218 -132 -64 -138 -59 -81 66 60 131 102 376
79 466 -24 96 -87 161 -180 185 -89 23 -122 11 -406 -158 -88 -52 -225 -132
-305 -179 -80 -46 -152 -89 -160 -94 -8 -5 -33 -18 -55 -30 -22 -12 -107 -62
-190 -112 -255 -152 -318 -177 -463 -177 -106 0 -132 14 -169 92 -17 36 -39
87 -48 114 -32 95 -39 289 -10 301 8 2 30 -13 49 -35 49 -54 124 -85 191 -80
66 6 231 85 1090 523 133 68 261 127 285 133 25 5 88 10 140 11 76 0 108 -4
162 -23z m-2 -735 c0 -32 -40 -149 -77 -226 -45 -95 -92 -149 -157 -182 -117
-58 -284 -171 -349 -236 -110 -109 -137 -192 -137 -417 0 -158 -3 -164 -62
-102 -108 112 -178 300 -163 435 11 92 79 217 168 309 71 74 162 148 228 187
155 92 374 198 455 220 21 6 46 15 54 21 24 15 40 12 40 -9z"/>
<path d="M2000 3546 c-44 -14 -76 -29 -78 -38 -6 -32 91 -50 141 -27 28 13 49
51 41 74 -8 19 -13 19 -104 -9z"/>
</g>
</svg>
